<svg xmlns="http://www.w3.org/2000/svg" viewBox="0 0 929.92 694.37"><defs><style>.cls-1{fill:#fff;}</style></defs><title>paws white</title><g id="Layer_2" data-name="Layer 2"><g id="Layer_1-2" data-name="Layer 1"><path class="cls-1" d="M11.17,279.85a32.07,32.07,0,0,0,7,53.31,26.88,26.88,0,0,1,14.32,17,32.07,32.07,0,0,0,62.66-13,28.09,28.09,0,0,1,3.75-17.94,32.07,32.07,0,0,0-38.83-46.21,28.14,28.14,0,0,1-18.32.6A32,32,0,0,0,11.17,279.85Z"/><ellipse class="cls-1" cx="51.17" cy="233.07" rx="23.84" ry="18.42" transform="translate(-178.24 167.42) rotate(-61.65)"/><ellipse class="cls-1" cx="136.81" cy="334.99" rx="23.84" ry="18.42" transform="translate(-98.88 60.43) rotate(-18.43)"/><ellipse class="cls-1" cx="106.47" cy="236.39" rx="27.39" ry="21.17" transform="translate(-136.9 147.01) rotate(-45.59)"/><ellipse class="cls-1" cx="143.06" cy="279.95" rx="27.39" ry="21.17" transform="matrix(0.82, -0.57, 0.57, 0.82, -133.37, 130.22)"/><path class="cls-1" d="M11.55,597.4a33.17,33.17,0,0,0,7.29,55.14,27.82,27.82,0,0,1,14.81,17.63,33.16,33.16,0,0,0,64.8-13.42,29.11,29.11,0,0,1,3.88-18.56A33.17,33.17,0,0,0,62.17,590.4a29.11,29.11,0,0,1-19,.62A33.12,33.12,0,0,0,11.55,597.4Z"/><ellipse class="cls-1" cx="52.92" cy="549.02" rx="24.66" ry="19.06" transform="translate(-455.37 334.87) rotate(-61.65)"/><ellipse class="cls-1" cx="141.5" cy="654.43" rx="24.66" ry="19.06" transform="translate(-199.62 78.29) rotate(-18.43)"/><ellipse class="cls-1" cx="110.12" cy="552.46" rx="28.33" ry="21.89" transform="translate(-361.57 244.49) rotate(-45.59)"/><ellipse class="cls-1" cx="147.96" cy="597.5" rx="28.33" ry="21.89" transform="translate(-312.33 188.81) rotate(-34.49)"/><path class="cls-1" d="M410.09,465.68a35.94,35.94,0,0,0-16.22,58,30.16,30.16,0,0,1,7.25,23.87,35.64,35.64,0,0,0,1.55,16.15,35.92,35.92,0,0,0,68.71-1.92A31.57,31.57,0,0,1,483.15,545a35.93,35.93,0,0,0-19.65-64.71,31.52,31.52,0,0,1-19.14-7.45A35.91,35.91,0,0,0,410.09,465.68Z"/><ellipse class="cls-1" cx="471.91" cy="435.1" rx="26.72" ry="20.64" transform="translate(-168.27 388.38) rotate(-38.5)"/><ellipse class="cls-1" cx="515.25" cy="577.83" rx="20.64" ry="26.72" transform="translate(-103 1043.81) rotate(-85.28)"/><ellipse class="cls-1" cx="527.42" cy="462.88" rx="30.69" ry="23.72" transform="translate(-136.76 236.38) rotate(-22.44)"/><ellipse class="cls-1" cx="545.94" cy="523.87" rx="30.69" ry="23.72" transform="translate(-92.37 117.61) rotate(-11.34)"/><path class="cls-1" d="M370.73,61.92a40.51,40.51,0,0,0-17.18,65.73,34,34,0,0,1,8.63,26.77,40.51,40.51,0,0,0,79.49,14.69,35.6,35.6,0,0,1,12.94-19.21,40.51,40.51,0,0,0-23.39-72.57,35.52,35.52,0,0,1-21.73-8A40.47,40.47,0,0,0,370.73,61.92Z"/><ellipse class="cls-1" cx="439.83" cy="26.26" rx="30.12" ry="23.28" transform="translate(83.63 285.61) rotate(-39.48)"/><ellipse class="cls-1" cx="491.43" cy="186.34" rx="23.28" ry="30.12" transform="translate(273.39 664.55) rotate(-86.26)"/><ellipse class="cls-1" cx="502.94" cy="56.52" rx="34.61" ry="26.74" transform="translate(18.96 204.51) rotate(-23.41)"/><ellipse class="cls-1" cx="524.99" cy="124.92" rx="34.61" ry="26.74" transform="translate(-14.56 114.87) rotate(-12.32)"/><path class="cls-1" d="M719.39,241.75A44.65,44.65,0,0,0,694,298a44.15,44.15,0,0,0,10.83,16.9A37.3,37.3,0,0,1,716,343.65a44.47,44.47,0,0,0,88.05,10.94A39,39,0,0,1,817,332.71a44.46,44.46,0,0,0-30.34-78,39,39,0,0,1-24.32-7.39A44.41,44.41,0,0,0,719.39,241.75Z"/><ellipse class="cls-1" cx="792.78" cy="198.19" rx="33.06" ry="25.55" transform="translate(76.89 592.25) rotate(-42.87)"/><ellipse class="cls-1" cx="859.71" cy="370.23" rx="25.55" ry="33.06" transform="translate(484.18 1227.64) rotate(-89.65)"/><ellipse class="cls-1" cx="863.9" cy="227.25" rx="37.99" ry="29.35" transform="translate(-9.65 414) rotate(-26.81)"/><ellipse class="cls-1" cx="892.49" cy="300.76" rx="37.99" ry="29.35" transform="translate(-48.09 252.86) rotate(-15.71)"/></g></g></svg>