<svg id="SvgjsSvg1001" width="288" height="288" xmlns="http://www.w3.org/2000/svg" version="1.1" xmlns:xlink="http://www.w3.org/1999/xlink" xmlns:svgjs="http://svgjs.com/svgjs"><defs id="SvgjsDefs1002"></defs><g id="SvgjsG1008" transform="matrix(0.9167,0,0,0.9167,11.995200000000011,11.995200000000011)"><!--?xml version="1.0" encoding="UTF-8"?--><svg xmlns="http://www.w3.org/2000/svg" xmlns:xlink="http://www.w3.org/1999/xlink" version="1.1" id="Layer_1" x="0px" y="0px" viewBox="0 0 16 16" xml:space="preserve" width="288" height="288"><path d="M12.502 2a.499.499 0 1 0 0-1h-.01c-.274 0-.492.224-.492.5s.227.5.502.5z" fill="#317efa" class="color000 svgShape"></path><path d="M12.502 4a.499.499 0 1 0 0-1h-.01c-.274 0-.492.224-.492.5s.227.5.502.5z" fill="#317efa" class="color000 svgShape"></path><path d="M10.502 2a.499.499 0 1 0 0-1h-.01c-.274 0-.492.224-.492.5s.227.5.502.5z" fill="#317efa" class="color000 svgShape"></path><path d="M10 6v1.172l2 2V6c0-1.103-.897-2-2-2V3H9V2a.5.5 0 0 1 0-1V.5a.5.5 0 0 0-.5-.5h-2a.5.5 0 0 0-.5.5V3h-.172l3 3H10z" fill="#317efa" class="color000 svgShape"></path><path d="M16 14.586L1.414 0 0 1.414 3.405 4.82A1.962 1.962 0 0 0 3 6v9a1 1 0 0 0 1 1h7a1 1 0 0 0 1-1v-1.586L14.586 16 16 14.586zM10 14H5V6.414L6.816 8.23C6.333 8.562 6 9.226 6 10c0 1.105.672 2 1.5 2 .73 0 1.336-.695 1.47-1.615l1.03 1.03V14z" fill="#317efa" class="color000 svgShape"></path><metadata><rdf:rdf xmlns:rdf="http://www.w3.org/1999/02/22-rdf-syntax-ns#" xmlns:rdfs="http://www.w3.org/2000/01/rdf-schema#" xmlns:dc="http://purl.org/dc/elements/1.1/"><rdf:description about="https://iconscout.com/legal#licenses" dc:title="no-graffiti" dc:description="no-graffiti" dc:publisher="Iconscout" dc:date="2018-06-20" dc:format="image/svg+xml" dc:language="en"><dc:creator><rdf:bag><rdf:li>Those Icons</rdf:li></rdf:bag></dc:creator></rdf:description></rdf:rdf></metadata></svg></g></svg>