<svg id="SvgjsSvg1001" width="288" height="288" xmlns="http://www.w3.org/2000/svg" version="1.1" xmlns:xlink="http://www.w3.org/1999/xlink" xmlns:svgjs="http://svgjs.com/svgjs"><defs id="SvgjsDefs1002"></defs><g id="SvgjsG1008" transform="matrix(0.9167,0,0,0.9167,11.995200000000011,11.991981365585332)"><!--?xml version="1.0" encoding="UTF-8" standalone="no"?--><svg xmlns="http://www.w3.org/2000/svg" viewBox="0 0 24 24" width="288" height="288"><title>Dog Food</title><g id="Dog_Food" data-name="Dog Food" fill="#317efa" class="color000 svgShape"><path d="M23.08,15,22,8.91l0,0c-.06-.55-.49-1-1.31-1.46a2,2,0,0,0-1.43-.89,2.05,2.05,0,0,0-2.68-.77A2,2,0,0,0,14.74,5a2,2,0,0,0-3.53.11A2,2,0,0,0,10.73,5,2,2,0,0,0,7.26,5a2,2,0,0,0-1.68.57A1.91,1.91,0,0,0,5,5.5a2,2,0,0,0-2,2s0,.06,0,.1A1.79,1.79,0,0,0,2,8.88v0L.92,15A1.82,1.82,0,0,0,0,16.5a1.62,1.62,0,0,0,.63,1.21.5.5,0,0,0,.15.13C2.6,19.26,7.32,20,12,20s9.4-.74,11.22-2.17a.5.5,0,0,0,.15-.13A1.62,1.62,0,0,0,24,16.5,1.82,1.82,0,0,0,23.08,15ZM3.78,8.31A.5.5,0,0,0,4,7.74,1,1,0,0,1,4,7.5a1,1,0,0,1,1.49-.87.5.5,0,0,0,.67-.17,1,1,0,0,1,1.21-.39A.5.5,0,0,0,8,5.74a1,1,0,0,1,1.9-.07.58.58,0,0,0,.53.33,1,1,0,0,1,.7.27A.5.5,0,0,0,12,5.93a1,1,0,0,1,2-.19.5.5,0,0,0,.67.33,1,1,0,0,1,1.3.58.5.5,0,0,0,.84.17,1,1,0,0,1,1.67.35A.58.58,0,0,0,19,7.5a1,1,0,0,1,.9.53.5.5,0,0,0,.23.21c.66.32.9.6.9.76,0,.68-3.18,2-9,2S3,9.68,3,9C3,8.86,3.2,8.6,3.78,8.31Z" style="" fill="#317efa" class="colorrgb486066 svgShape"></path><path d="M7.5,9A.5.5,0,0,0,8,8.5.5.5,0,0,1,8.5,8a.5.5,0,0,0,0-1A1.5,1.5,0,0,0,7,8.5.5.5,0,0,0,7.5,9Z" style="" fill="#317efa" class="colorrgb486066 svgShape"></path><path d="M14.5,9a.5.5,0,0,0,.5-.5.5.5,0,0,1,.5-.5.5.5,0,0,0,0-1A1.5,1.5,0,0,0,14,8.5.5.5,0,0,0,14.5,9Z" style="" fill="#317efa" class="colorrgb486066 svgShape"></path><path d="M17.5,9a.5.5,0,0,1,.5.5.5.5,0,0,0,1,0A1.5,1.5,0,0,0,17.5,8a.5.5,0,0,0,0,1Z" style="" fill="#317efa" class="colorrgb486066 svgShape"></path><path d="M10.5,10a.5.5,0,0,0,.5-.5.5.5,0,0,1,.5-.5.5.5,0,0,0,0-1A1.5,1.5,0,0,0,10,9.5.5.5,0,0,0,10.5,10Z" style="" fill="#317efa" class="colorrgb486066 svgShape"></path></g>
	<metadata>
		<rdf:rdf xmlns:rdf="http://www.w3.org/1999/02/22-rdf-syntax-ns#" xmlns:rdfs="http://www.w3.org/2000/01/rdf-schema#" xmlns:dc="http://purl.org/dc/elements/1.1/">
			<rdf:description about="https://iconscout.com/legal#licenses" dc:title="pet; animal; pets; dog; food; plate" dc:description="pet; animal; pets; dog; food; plate" dc:publisher="Iconscout" dc:date="2017-02-21" dc:format="image/svg+xml" dc:language="en">
				<dc:creator>
					<rdf:bag>
						<rdf:li>Alpár - Etele Méder</rdf:li>
					</rdf:bag>
				</dc:creator>
			</rdf:description>
		</rdf:rdf>
    </metadata></svg>
</g></svg>