<svg id="SvgjsSvg1046" width="288" height="288" xmlns="http://www.w3.org/2000/svg" version="1.1" xmlns:xlink="http://www.w3.org/1999/xlink" xmlns:svgjs="http://svgjs.com/svgjs"><defs id="SvgjsDefs1047"></defs><g id="SvgjsG1048" transform="matrix(0.9167,0,0,0.9167,11.995200000000011,11.995200000000011)"><!--?xml version="1.0" encoding="UTF-8" standalone="no"?--><svg xmlns:dc="http://purl.org/dc/elements/1.1/" xmlns:cc="http://creativecommons.org/ns#" xmlns:rdf="http://www.w3.org/1999/02/22-rdf-syntax-ns#" xmlns:svg="http://www.w3.org/2000/svg" xmlns="http://www.w3.org/2000/svg" xmlns:sodipodi="http://sodipodi.sourceforge.net/DTD/sodipodi-0.dtd" xmlns:inkscape="http://www.inkscape.org/namespaces/inkscape" width="288" height="288" viewBox="0 0 32 32.000001" id="svg17515" version="1.1" inkscape:version="0.91 r13725" sodipodi:docname="wheat-gluten-free-allergen-allergy-antigen-prohibited.svg">
  <defs id="defs17517">
    <pattern y="0" x="0" height="6" width="6" patternUnits="userSpaceOnUse" id="EMFhbasepattern"></pattern>
  </defs>
  <sodipodi:namedview id="base" pagecolor="#ffffff" bordercolor="#666666" borderopacity="1.0" inkscape:pageopacity="0.0" inkscape:pageshadow="2" inkscape:zoom="8.3959724" inkscape:cx="-6.7175475" inkscape:cy="14.493307" inkscape:document-units="px" inkscape:current-layer="layer1" showgrid="false" units="px" inkscape:window-width="1366" inkscape:window-height="716" inkscape:window-x="-8" inkscape:window-y="-8" inkscape:window-maximized="1"></sodipodi:namedview>
  
  <g inkscape:label="Layer 1" inkscape:groupmode="layer" id="layer1" transform="translate(0,-1020.3622)" fill="#4597ff" class="color000 svgShape">
    <path style="color: rgb(0, 0, 0); font: medium sans-serif; text-indent: 0px; text-align: start; text-decoration: none solid rgb(0, 0, 0); letter-spacing: normal; word-spacing: normal; text-transform: none; direction: ltr; writing-mode: lr-tb; baseline-shift: baseline; text-anchor: start; white-space: normal; clip-rule: nonzero; display: inline; overflow: visible; visibility: visible; opacity: 1; isolation: auto; mix-blend-mode: normal; color-interpolation: srgb; color-interpolation-filters: linearrgb; fill-opacity: 1; fill-rule: evenodd; stroke: none; stroke-width: 1; stroke-linecap: round; stroke-linejoin: round; stroke-miterlimit: 4; stroke-dasharray: none; stroke-dashoffset: 0; stroke-opacity: 1; color-rendering: auto; image-rendering: auto; shape-rendering: auto; text-rendering: auto;" d="m 16,1020.8622 c -8.5545,0 -15.5,6.9455 -15.5,15.5 0,8.5545 6.9455,15.5 15.5,15.5 8.5545,0 15.5,-6.9455 15.5,-15.5 0,-8.5545 -6.9455,-15.5 -15.5,-15.5 z m 0,1 c 3.8277,0 7.2964,1.491 9.8867,3.9101 l -3.5254,3.5274 a 0.50004994,0.50004994 0 1 0 0.707,0.707 l 3.5254,-3.5273 c 2.4169,2.5899 3.9063,6.057 3.9063,9.8828 0,8.014 -6.486,14.5 -14.5,14.5 -3.8214,0 -7.2861,-1.4866 -9.875,-3.8985 l 4.1074,-4.1074 a 0.50004994,0.50004994 0 0 0 -0.3633,-0.8574 0.50004994,0.50004994 0 0 0 -0.3437,0.1504 l -4.1075,4.1074 C 2.9938,1043.6654 1.5,1040.1944 1.5,1036.3622 c 0,-8.0141 6.4859,-14.5 14.5,-14.5 z" id="path11462" inkscape:connector-curvature="0" fill="#317efa" class="colorrgb596061 svgShape"></path>
    <path sodipodi:nodetypes="cacac" inkscape:connector-curvature="0" id="path19676-05-1-2-8" d="m 15.9996,1031.6394 c 0,0 1.25,-1.7246 1.25,-2.7492 0,-1.0244 -1.25,-2.7491 -1.25,-2.7491 0,0 -1.25,1.7247 -1.25,2.7491 0,1.0246 1.25,2.7492 1.25,2.7492 z" style="fill-rule: evenodd; stroke: none; stroke-width: 1; stroke-linecap: round; stroke-linejoin: round; stroke-miterlimit: 4; stroke-dasharray: none; stroke-opacity: 1;" fill="#317efa" class="colorrgb596061 svgShape"></path>
    <path style="color: rgb(0, 0, 0); font: medium sans-serif; text-indent: 0px; text-align: start; text-decoration: none solid rgb(0, 0, 0); letter-spacing: normal; word-spacing: normal; text-transform: none; direction: ltr; writing-mode: lr-tb; baseline-shift: baseline; text-anchor: start; white-space: normal; clip-rule: nonzero; display: inline; overflow: visible; visibility: visible; opacity: 1; isolation: auto; mix-blend-mode: normal; color-interpolation: srgb; color-interpolation-filters: linearrgb; fill-opacity: 1; fill-rule: evenodd; stroke: none; stroke-width: 1; stroke-linecap: round; stroke-linejoin: round; stroke-miterlimit: 4; stroke-dasharray: none; stroke-dashoffset: 0; stroke-opacity: 1; color-rendering: auto; image-rendering: auto; shape-rendering: auto; text-rendering: auto;" d="m 13.8379,1024.6035 a 0.50004997,0.50004997 0 0 0 -0.4922,0.5078 l 0,2.7715 a 0.50004997,0.50004997 0 1 0 1,0 l 0,-2.7715 a 0.50004997,0.50004997 0 0 0 -0.5078,-0.5078 z" id="path19678-9-4-6-8" inkscape:connector-curvature="0" fill="#317efa" class="colorrgb596061 svgShape"></path>
    <path style="color: rgb(0, 0, 0); font: medium sans-serif; text-indent: 0px; text-align: start; text-decoration: none solid rgb(0, 0, 0); letter-spacing: normal; word-spacing: normal; text-transform: none; direction: ltr; writing-mode: lr-tb; baseline-shift: baseline; text-anchor: start; white-space: normal; clip-rule: nonzero; display: inline; overflow: visible; visibility: visible; opacity: 1; isolation: auto; mix-blend-mode: normal; color-interpolation: srgb; color-interpolation-filters: linearrgb; fill-opacity: 1; fill-rule: evenodd; stroke: none; stroke-width: 1; stroke-linecap: round; stroke-linejoin: round; stroke-miterlimit: 4; stroke-dasharray: none; stroke-dashoffset: 0; stroke-opacity: 1; color-rendering: auto; image-rendering: auto; shape-rendering: auto; text-rendering: auto;" d="m 11.6836,1025.6035 a 0.50004991,0.50004991 0 0 0 -0.4922,0.5059 l 0,2.7578 a 0.50004991,0.50004991 0 1 0 1,0 l 0,-2.7578 a 0.50004991,0.50004991 0 0 0 -0.5078,-0.5059 z" id="path19674-2-0-8-0" inkscape:connector-curvature="0" fill="#317efa" class="colorrgb596061 svgShape"></path>
    <path style="color: rgb(0, 0, 0); font: medium sans-serif; text-indent: 0px; text-align: start; text-decoration: none solid rgb(0, 0, 0); letter-spacing: normal; word-spacing: normal; text-transform: none; direction: ltr; writing-mode: lr-tb; baseline-shift: baseline; text-anchor: start; white-space: normal; clip-rule: nonzero; display: inline; overflow: visible; visibility: visible; opacity: 1; isolation: auto; mix-blend-mode: normal; color-interpolation: srgb; color-interpolation-filters: linearrgb; fill-opacity: 1; fill-rule: evenodd; stroke: none; stroke-width: 1; stroke-linecap: round; stroke-linejoin: round; stroke-miterlimit: 4; stroke-dasharray: none; stroke-dashoffset: 0; stroke-opacity: 1; color-rendering: auto; image-rendering: auto; shape-rendering: auto; text-rendering: auto;" d="m 15.4551,1045.3622 c -0.6667,0.03 -0.6218,1.0299 0.045,1 l 0,1.7422 c -0.01,0.6762 1.0096,0.6762 1,0 l 0,-1.7422 c 0.6746,0 0.6667,-1.0132 -0.01,-1 -0.3431,0 -0.6985,0 -1.0374,0 z" id="path19684-7-9-2-3" inkscape:connector-curvature="0" sodipodi:nodetypes="cccccccc" fill="#317efa" class="colorrgb596061 svgShape"></path>
    <path style="color: rgb(0, 0, 0); font: medium sans-serif; text-indent: 0px; text-align: start; text-decoration: none solid rgb(0, 0, 0); letter-spacing: normal; word-spacing: normal; text-transform: none; direction: ltr; writing-mode: lr-tb; baseline-shift: baseline; text-anchor: start; white-space: normal; clip-rule: nonzero; display: inline; overflow: visible; visibility: visible; opacity: 1; isolation: auto; mix-blend-mode: normal; color-interpolation: srgb; color-interpolation-filters: linearrgb; fill-opacity: 1; fill-rule: evenodd; stroke: none; stroke-width: 1; stroke-linecap: round; stroke-linejoin: round; stroke-miterlimit: 4; stroke-dasharray: none; stroke-dashoffset: 0; stroke-opacity: 1; color-rendering: auto; image-rendering: auto; shape-rendering: auto; text-rendering: auto;" d="M 15.9922,1024.4922 A 0.50005,0.50005 0 0 0 15.5,1024.998 l 0,2.2246 a 0.50005,0.50005 0 1 0 1,0 l 0,-2.2246 a 0.50005,0.50005 0 0 0 -0.5078,-0.5058 z" id="path19680-5-1-9-7" inkscape:connector-curvature="0" fill="#317efa" class="colorrgb596061 svgShape"></path>
    <path style="color: rgb(0, 0, 0); font: medium sans-serif; text-indent: 0px; text-align: start; text-decoration: none solid rgb(0, 0, 0); letter-spacing: normal; word-spacing: normal; text-transform: none; direction: ltr; writing-mode: lr-tb; baseline-shift: baseline; text-anchor: start; white-space: normal; clip-rule: nonzero; display: inline; overflow: visible; visibility: visible; opacity: 1; isolation: auto; mix-blend-mode: normal; color-interpolation: srgb; color-interpolation-filters: linearrgb; fill-opacity: 1; fill-rule: evenodd; stroke: none; stroke-width: 1; stroke-linecap: round; stroke-linejoin: round; stroke-miterlimit: 4; stroke-dasharray: none; stroke-dashoffset: 0; stroke-opacity: 1; color-rendering: auto; image-rendering: auto; shape-rendering: auto; text-rendering: auto;" d="m 20.2988,1025.6035 a 0.50004991,0.50004991 0 0 0 -0.4922,0.5059 l 0,2.7578 a 0.50004991,0.50004991 0 1 0 1,0 l 0,-2.7578 a 0.50004991,0.50004991 0 0 0 -0.5078,-0.5059 z" id="path28502" inkscape:connector-curvature="0" fill="#317efa" class="colorrgb596061 svgShape"></path>
    <path style="color: rgb(0, 0, 0); font: medium sans-serif; text-indent: 0px; text-align: start; text-decoration: none solid rgb(0, 0, 0); letter-spacing: normal; word-spacing: normal; text-transform: none; direction: ltr; writing-mode: lr-tb; baseline-shift: baseline; text-anchor: start; white-space: normal; clip-rule: nonzero; display: inline; overflow: visible; visibility: visible; opacity: 1; isolation: auto; mix-blend-mode: normal; color-interpolation: srgb; color-interpolation-filters: linearrgb; fill-opacity: 1; fill-rule: evenodd; stroke: none; stroke-width: 1; stroke-linecap: round; stroke-linejoin: round; stroke-miterlimit: 4; stroke-dasharray: none; stroke-dashoffset: 0; stroke-opacity: 1; color-rendering: auto; image-rendering: auto; shape-rendering: auto; text-rendering: auto;" d="m 18.1465,1024.6035 a 0.50004997,0.50004997 0 0 0 -0.4942,0.5078 l 0,2.7715 a 0.50004997,0.50004997 0 1 0 1,0 l 0,-2.7715 a 0.50004997,0.50004997 0 0 0 -0.5058,-0.5078 z" id="path28504" inkscape:connector-curvature="0" fill="#317efa" class="colorrgb596061 svgShape"></path>
    <path inkscape:connector-curvature="0" style="fill-rule: evenodd; stroke: none; stroke-width: 1; stroke-linecap: round; stroke-linejoin: round; stroke-miterlimit: 4; stroke-dasharray: none; stroke-opacity: 1;" d="m 11.7057,1039.936 a 0.50004997,0.50004997 0 0 1 0.3438,0.1504 l 0.4707,0.4707 c 0.7143,0.1478 1.6266,0.4001 2.0605,0.834 0.7454,0.7452 1,3 1,3 0,0 -2.243,-0.6774 -3,-1.5 -0.3406,-0.37 -0.5856,-1.0399 -0.7597,-1.6192 l -0.4786,-0.4785 a 0.50004997,0.50004997 0 0 1 0.3633,-0.8574 z" id="path11942" fill="#317efa" class="colorrgb596061 svgShape"></path>
    <path inkscape:connector-curvature="0" id="path11944" d="m 20.2932,1039.9368 a 0.50004997,0.50004997 0 0 0 -0.3438,0.1504 l -0.4707,0.4707 c -0.7143,0.1478 -1.6266,0.4001 -2.0605,0.834 -0.7454,0.7452 -1,3 -1,3 0,0 2.243,-0.6774 3,-1.5 0.3406,-0.37 0.5856,-1.0399 0.7597,-1.6192 l 0.4786,-0.4785 a 0.50004997,0.50004997 0 0 0 -0.3633,-0.8574 z" style="fill-rule: evenodd; stroke: none; stroke-width: 1; stroke-linecap: round; stroke-linejoin: round; stroke-miterlimit: 4; stroke-dasharray: none; stroke-opacity: 1;" fill="#317efa" class="colorrgb596061 svgShape"></path>
    <path id="path11935" d="m 11.7057,1035.1817 a 0.50004997,0.50004997 0 0 1 0.3438,0.1504 l 0.4707,0.4707 c 0.7143,0.1478 1.6266,0.4001 2.0605,0.834 0.7454,0.7452 1,3 1,3 0,0 -2.243,-0.6774 -3,-1.5 -0.3406,-0.37 -0.5856,-1.0399 -0.7597,-1.6192 l -0.4786,-0.4785 a 0.50004997,0.50004997 0 0 1 0.3633,-0.8574 z" style="fill-rule: evenodd; stroke: none; stroke-width: 1; stroke-linecap: round; stroke-linejoin: round; stroke-miterlimit: 4; stroke-dasharray: none; stroke-opacity: 1;" inkscape:connector-curvature="0" fill="#317efa" class="colorrgb596061 svgShape"></path>
    <path inkscape:connector-curvature="0" style="fill-rule: evenodd; stroke: none; stroke-width: 1; stroke-linecap: round; stroke-linejoin: round; stroke-miterlimit: 4; stroke-dasharray: none; stroke-opacity: 1;" d="m 20.2932,1035.1825 a 0.50004997,0.50004997 0 0 0 -0.3438,0.1504 l -0.4707,0.4707 c -0.7143,0.1478 -1.6266,0.4001 -2.0605,0.834 -0.7454,0.7452 -1,3 -1,3 0,0 2.243,-0.6774 3,-1.5 0.3406,-0.37 0.5856,-1.0399 0.7597,-1.6192 l 0.4786,-0.4785 a 0.50004997,0.50004997 0 0 0 -0.3633,-0.8574 z" id="path19662-1-3-9-9" fill="#317efa" class="colorrgb596061 svgShape"></path>
    <path inkscape:connector-curvature="0" style="fill-rule: evenodd; stroke: none; stroke-width: 1; stroke-linecap: round; stroke-linejoin: round; stroke-miterlimit: 4; stroke-dasharray: none; stroke-opacity: 1;" d="m 11.7057,1030.1826 a 0.50004997,0.50004997 0 0 1 0.3438,0.1504 l 0.4707,0.4707 c 0.7143,0.1478 1.6266,0.4001 2.0605,0.834 0.7454,0.7452 1,3 1,3 0,0 -2.243,-0.6774 -3,-1.5 -0.3406,-0.37 -0.5856,-1.0399 -0.7597,-1.6192 l -0.4786,-0.4785 a 0.50004997,0.50004997 0 0 1 0.3633,-0.8574 z" id="path11948" fill="#317efa" class="colorrgb596061 svgShape"></path>
    <path inkscape:connector-curvature="0" id="path11950" d="m 20.2932,1030.1834 a 0.50004997,0.50004997 0 0 0 -0.3438,0.1504 l -0.4707,0.4707 c -0.7143,0.1478 -1.6266,0.4001 -2.0605,0.834 -0.7454,0.7452 -1,3 -1,3 0,0 2.243,-0.6774 3,-1.5 0.3406,-0.37 0.5856,-1.0399 0.7597,-1.6192 l 0.4786,-0.4785 a 0.50004997,0.50004997 0 0 0 -0.3633,-0.8574 z" style="fill-rule: evenodd; stroke: none; stroke-width: 1; stroke-linecap: round; stroke-linejoin: round; stroke-miterlimit: 4; stroke-dasharray: none; stroke-opacity: 1;" fill="#317efa" class="colorrgb596061 svgShape"></path>
  </g>

	<metadata>
		<rdf:rdf xmlns:rdf="http://www.w3.org/1999/02/22-rdf-syntax-ns#" xmlns:rdfs="http://www.w3.org/2000/01/rdf-schema#" xmlns:dc="http://purl.org/dc/elements/1.1/">
			<rdf:description about="https://iconscout.com/legal#licenses" dc:title="wheat-gluten-free-allergen-allergy-antigen-prohibited" dc:description="wheat-gluten-free-allergen-allergy-antigen-prohibited" dc:publisher="Iconscout" dc:date="2017-04-20" dc:format="image/svg+xml" dc:language="en">
				<dc:creator>
					<rdf:bag>
						<rdf:li>Vignesh Oviyan</rdf:li>
					</rdf:bag>
				</dc:creator>
			</rdf:description>
		</rdf:rdf>
    </metadata></svg>
</g></svg>