<svg id="SvgjsSvg1001" width="288" height="288" xmlns="http://www.w3.org/2000/svg" version="1.1" xmlns:xlink="http://www.w3.org/1999/xlink" xmlns:svgjs="http://svgjs.com/svgjs"><defs id="SvgjsDefs1002"></defs><g id="SvgjsG1008" transform="matrix(0.9167,0,0,0.9167,11.995199364471432,12.018627926397329)"><svg xmlns="http://www.w3.org/2000/svg" data-name="Layer 1" viewBox="0 0 512 512" width="288" height="288"><path d="M405,53.478A49.478,49.478,0,0,0,355.521,4H156.479A49.478,49.478,0,0,0,107,53.478V459.522A49.478,49.478,0,0,0,156.479,509H355.521A49.478,49.478,0,0,0,405,459.522ZM123,101H389V395H123Zm33.307-81H355.693A33.085,33.085,0,0,1,389,53.143V85H123V53.143A33.085,33.085,0,0,1,156.307,20ZM355.693,492H156.307A33.085,33.085,0,0,1,123,458.857V411H389v47.857A33.085,33.085,0,0,1,355.693,492Z" fill="#317efa" class="color000 svgShape"></path><path d="M220.707 58h70.586a8 8 0 0 0 0-16H220.707a8 8 0 0 0 0 16zM256 421.75a29.719 29.719 0 1 0 29.719 29.718A29.752 29.752 0 0 0 256 421.75zm0 43.437a13.719 13.719 0 1 1 13.719-13.719A13.735 13.735 0 0 1 256 465.187zM380.212 253.392c0-15.922-17.212-29.1-49.212-37.41V207.5a7.861 7.861 0 0 0-4.5-7.268l-67.231-30.97a7.915 7.915 0 0 0-6.649 0l-67.135 30.97A7.845 7.845 0 0 0 181 207.5v8.609c-32 8.377-49.366 21.508-49.366 37.281 0 8.459 5.273 20.689 30.029 30.916A158.409 158.409 0 0 0 181 290.647V304.5a7.861 7.861 0 0 0 4.5 7.268l67.231 30.97a7.829 7.829 0 0 0 3.306.732 7.913 7.913 0 0 0 3.324-.732l67.145-30.97A7.853 7.853 0 0 0 331 304.5V290.6C359 283.333 380.212 271.239 380.212 253.392zM256 185.338l48.223 22.188L256 229.862l-48.223-22.336zm-8 137.643l-12.3-5.659 12.3-8.067zm-12-24.775V283.323l11.347 7.442zm-3.94-36.386a7.71 7.71 0 0 0-8.026-.35A7.852 7.852 0 0 0 220 268.509v12.943a231.517 231.517 0 0 1-23-3.506V220.024l51 23.766v28.484zm-84.272-8.428c0-5.641 10.212-14.08 33.212-20.68v41.33C159 267.657 147.788 259.33 147.788 253.392zM197 294.222c7 1.366 15 2.481 23 3.316v12.409l-23-10.574zm118 5.151l-51 23.608v-24.22l1.993-1.307a8 8 0 0 0 0-13.379L264 282.768V243.79l51-23.766v57.929a256.732 256.732 0 0 1-32.828 4.438 7.939 7.939 0 0 0-7.284 8.591 8.037 8.037 0 0 0 8.006 7.385c.207 0 .28-.008.489-.024A278.309 278.309 0 0 0 315 294.19zm16-25.3V232.576c23 6.564 33.212 15.087 33.212 20.816C364.212 259.381 353 267.7 331 274.069z" fill="#317efa" class="color000 svgShape"></path></svg></g></svg>