<svg xmlns="http://www.w3.org/2000/svg" viewBox="0 0 294.24 234"><defs><style>.cls-1{fill:#317efa;}</style></defs><title>ideal</title><g id="Layer_2" data-name="Layer 2"><g id="Layer_1-2" data-name="Layer 1"><path class="cls-1" d="M33.79,186.31c-8.42,5.62-13.9,12.34-16.49,21.58-2.72,9.67,1.6,17.56,7,25.32-10.52,2.37-15.2-.81-15.66-10.07-.66-13.28,2.48-26.06,6.1-38.7.4-1.4,2-2.51,3.13-3.64,6.24-6.12,12.89-11.86,18.65-18.39a35.71,35.71,0,0,0,9.07-22.76c.46-17.18.69-34.3,11.35-50-19-8-38.07-12.64-56.89-18.64a74,74,0,0,1,7.45,0c2.8.29,5.57,1,8.34,1.51,2.61.52,5.22,1,7.8,1.69C34.21,77,44.87,79.66,55.41,82.7A26.57,26.57,0,0,0,70,83c19.08-4.81,38.58-6.83,58.2-8.22,21.43-1.52,42.13-6.15,60.46-18.08,13.78-9,23.83-21.86,34.33-34.2a13.89,13.89,0,0,0,2.72-4.72C230,3.59,243.1-.44,254.74,0c4.66.19,9,.84,12.12,5.41,2.55,3.78,6.75,4.91,11.47,4.32,4.93-.61,9.92-.71,15.63-1.08a32.32,32.32,0,0,1-4.7,21.75c-3.06,4.93-7.85,5.72-13.16,4.6-11.66-2.45-20.78,2.72-28.69,10.26C237,55.21,232.29,68.07,230.25,82c-.92,6.26-1.34,12.59-2.52,18.79A46.7,46.7,0,0,1,217.49,122c-9.14,11.14-12.11,25.1-13.79,38.93-1.94,16-2.42,32.14-3.47,48.23a19.31,19.31,0,0,0,.36,5c1.27,6.52,3.79,8.56,10.46,8.68,2.29,0,5.49-.38,4.86,3-.29,1.61-3,3.55-4.92,3.93-3.59.73-7,.44-10.56,2.87-6.47,4.37-16.66-2.3-17.3-10.87-.34-4.49-1.15-8.33-4.53-11.71-1.36-1.36-1.54-4.28-1.59-6.51-.47-18.47-.89-36.94-1.07-55.42,0-4.57-1-6-6.18-6-11.61.16-23.22-1.17-34.84-1.37-12.95-.23-25.9.06-38.85.3-1.24,0-3.16.94-3.58,1.94-5,12-15,18.09-25.74,24.13a88.86,88.86,0,0,0-20.69,16.53c-7.18,7.62-8.55,17.41-5.31,27.51.35,1.12,2,1.76,2.71,2.85.91,1.42,1.9,3.06,1.94,4.62,0,.76-1.93,2-3.17,2.29-6.79,1.57-11.82-3.48-11-11.24.65-6.44,1.75-12.83,2.59-19.24A39,39,0,0,0,33.79,186.31Z"/></g></g></svg>