<svg xmlns="http://www.w3.org/2000/svg" viewBox="0 0 294.92 234"><defs><style>.cls-1{fill:#317efa;}</style></defs><title>obese</title><g id="Layer_2" data-name="Layer 2"><g id="Layer_1-2" data-name="Layer 1"><path class="cls-1" d="M259.2,0C262,2,265,3.75,267.49,6.06c3.14,2.9,6.48,4.3,10.78,3.79,4.1-.49,8.26-.52,12.37-.95,3.5-.36,4.71,1.56,4.16,4.43-1,5-1.88,10.11-3.76,14.79-2.66,6.65-6.77,9-13.82,7.6-13.14-2.59-22.88,3-31.27,12.06-9.74,10.5-14,23.44-15.62,37.4q-.9,7.65-2.1,15.25a40.59,40.59,0,0,1-9.33,20.45C210,131.49,206.3,144.66,204.73,158c-2,17.06-2.55,34.29-3.71,51.45a12.36,12.36,0,0,0,0,1.49c.43,8,3.26,10.91,11.18,11,2.47,0,4.77.46,4.23,3.25-.31,1.6-2.31,3.81-3.82,4.06-4.23.7-8.06.9-12.28,3.27-6.91,3.88-15.74-2.1-16.93-10.17-.67-4.58-.92-9.16-4.93-12.57-1.1-.94-1.3-3.33-1.34-5.07-.34-13.76-.34-27.53-.88-41.28-.21-5.36-1.57-10.66-2.3-16a38.66,38.66,0,0,1,0-5c-12.86.14-25.61-.66-38.08,4.59-13.17,5.55-27.28,6.56-41.49,4.42-3.29-.49-5.63.08-8.07,3.07-2.61,3.19-6.52,5.55-10.24,7.56-10,5.38-19.87,10.73-27.38,19.47-6.73,7.85-10.2,16.67-7,27.06.52,1.69,2.28,3,3.25,4.57s2,3.17,2,4.72c0,1-2,2.34-3.29,2.72-6.84,2-11.95-2.2-11.57-9.91.39-8.05,1.54-16.08,2.34-23.87-10.73,5.32-18.42,20.09-15.84,32,.7,3.23,3.12,6.08,4.59,9.18.67,1.42,1.64,3.34,1.16,4.47-.39.92-2.73,1.38-4.22,1.42-6.36.14-10.22-3.41-10.7-9.85-1.05-14,2.56-27.29,6.09-40.57.39-1.47,2.34-2.63,3.74-3.7,12.51-9.54,23.33-20.51,26.36-36.61,1.46-7.76,1.27-15.85,1.47-23.8.22-8.89,3.52-16.78,7.39-24.48,2.73-5.43,2.9-5.71-3-7.52-16.59-5-33.24-9.91-49.86-14.87A7.37,7.37,0,0,1,0,71.72l.26-1.39c5.06.57,10.23.68,15.17,1.82,13.85,3.19,27.62,6.74,41.39,10.28,6.52,1.68,12.58-.27,18.75-1.78,4.26-1.05,8.51-2.44,12.84-2.86,14.49-1.41,29-2.84,43.54-3.51,12-.55,23.15-4,34.17-7.85,13.85-4.8,27.13-10.91,36.61-23.09,3.46-4.44,8.48-7.63,12.1-12a102.75,102.75,0,0,0,11.52-16.45C230.35,7.54,236,2.88,244,1c1.09-.26,2.15-.65,3.22-1Z"/></g></g></svg>