<svg xmlns="http://www.w3.org/2000/svg" viewBox="0 0 293.74 234"><defs><style>.cls-1{fill:#317efa;}</style></defs><title>overweight</title><g id="Layer_2" data-name="Layer 2"><g id="Layer_1-2" data-name="Layer 1"><path class="cls-1" d="M173.65,148a4.23,4.23,0,0,0-4.59-3.63c-6.94.68-15.26.5-22.19.79-17.07.72-30.78,1-48.31.53-6.23.73-7.17,1.68-10,6.78-4.17,7.6-8.66,7.28-16.77,11-11.29,5.16-21.33,12.25-28.55,22.68-5.53,8-5.79,16.71-3.16,25.68.26.92,2.15,1.25,2.81,2.18a8.51,8.51,0,0,1,1.76,4.23c0,.75-1.49,1.95-2.53,2.31-6,2.06-11.7-1.7-11.5-8.23.23-7.27,1.48-14.52,2.28-21.77.13-1.11.28-2.22.54-4.39-8.89,5.31-14.07,12.13-16.71,21.21-2.77,9.56.31,17.57,6.48,24.67-6.66,4.3-14.27,1.2-15.12-6.21C7.4,219.64,8,213.2,8.77,207A102.39,102.39,0,0,1,13,188.08a19.23,19.23,0,0,1,6.25-9C35.72,166.76,46.11,151.4,45.3,130c-.49-12.9,1.79-25.15,8.62-36.27,2.22-3.61,1.14-5.29-2.69-6.4C34.81,82.56,18.43,77.66,2,72.79a3.21,3.21,0,0,1-2-2c2.47.18,5,0,7.39.57,15.08,3.41,30.27,6.45,45.11,10.71,7.92,2.27,14-1.79,21.38-3.16s14.79-3,22.32-3.6c21.36-1.78,43.84-.6,64.74-6.49s37.27-18.41,51.18-34.6c5.8-6.74,11.14-13.52,15.16-21.82C232.53,1.58,243.77-.48,255.13.09c4.35.21,8.2,1.19,11.11,5.31,2.41,3.4,6.25,5,11,4.36,5.2-.74,10.52-.74,16.54-1.1-.6,9.24-.81,18-7.79,24.28a10.57,10.57,0,0,1-8.21,2.18C260.07,30.84,246,45.47,238.4,58.28c-6.75,11.43-8.88,22.52-10.42,35.2-1.3,10.76-4.55,20.32-11.65,29C207.51,133.35,204.45,147,203,160.58c-1.83,16.51-2.53,33.15-3.21,49.75-.4,9.78,2,11.78,11.7,12.51,1.41.11,2.71,1.68,4.06,2.58-1.34,1.48-2.43,3.53-4.1,4.28s-3.93.12-5.92.23c-1.14,0-2.78-.05-3.31.62-4,5-8.72,3-13.11,1.34-4.6-1.78-6.18-5.75-6.85-10.62-.49-3.52-2.7-6.77-4-10.21-.83-2.26-1.85-4.63-1.92-7-.48-18-1.88-34-2.28-52A36,36,0,0,0,173.65,148Z"/></g></g></svg>