<svg xmlns="http://www.w3.org/2000/svg" viewBox="0 0 289.7 234"><defs><style>.cls-1{fill:#317efa;}</style></defs><title>really underweight</title><g id="Layer_2" data-name="Layer 2"><g id="Layer_1-2" data-name="Layer 1"><path id="underweight" class="cls-1" d="M.22,69c5.29.61,10.71.71,15.86,1.92,13.67,3.21,27.2,7,40.86,10.29a22.4,22.4,0,0,0,10.17.12c18.27-4.49,36.79-6.77,55.55-8,20-1.3,39.54-5,57.29-15,13.63-7.64,24.09-19,33.81-30.94a99.59,99.59,0,0,0,9.1-14.11C227.5,5,234.4.66,243.8.2a50.68,50.68,0,0,1,10,.1c2.43.38,5.49,1.28,6.87,3.05,4.57,5.87,10.36,6.67,17,5.58,12.22-2,13.72-.38,10.62,11.69a39.94,39.94,0,0,1-2.52,7.51c-2.83,5.83-7.12,8.34-13.45,7-13.3-2.85-23,3.25-31.22,12.35-9.77,10.76-13.5,24.12-15.14,38.26a139.56,139.56,0,0,1-3.33,19.55,29.06,29.06,0,0,1-5.7,10.89c-9.25,11-13.88,24-15.71,37.69-2.26,17-2.85,34.13-4.06,51.22a20.14,20.14,0,0,0,.66,5.43c1.28,6,3.11,7.53,9.08,7.65,2.84,0,5.9.25,5.81,3.82-.08,3.2-2.71,4.27-5.78,4.08a14.29,14.29,0,0,0-9.66,2.68c-5.77,4-16.16-1.25-17.27-8.26a42.64,42.64,0,0,0-5.17-14.71c-2.44-4.35-1.72-10.65-1.8-16.1-.23-15-.2-30.11-.13-45.16,0-3-.56-4.77-4-4.85-9.53-.24-18-4.09-26.35-8.19-9.85-4.84-19.64-9.8-29.65-14.28-7.85-3.51-11.82-1.69-15.51,6.33s-7.21,16.39-11,24.48c-3.24,6.85-8.53,11.53-15.37,15-9.85,5.06-18.59,11.73-25.28,20.82-5.64,7.67-6.83,16-4.18,25a5.73,5.73,0,0,0,1.95,3.19c2.72,1.57,5.39,4,2.89,6.42-1.84,1.77-6.31,2.29-9,1.42-4.86-1.59-6.65-7.55-5.78-14.08.77-5.84,1.17-11.72,1.85-18.77-7.69,5.55-12.06,11.84-14.26,19.78a21.78,21.78,0,0,0,4.21,20.6c1.06,1.33,1,3.56,1.44,5.37-1.7.43-3.41,1.23-5.11,1.2-5.26-.09-8.56-3.22-9.58-8.34C7.92,214.54,11,203.87,12.58,193c1-6.89,4.13-11.7,9.75-16.26,10.2-8.27,17.79-18.94,20.52-32.22a70,70,0,0,0,1.43-14.36c-.05-13.55,2.16-26.48,9.09-38.31,2-3.4.47-4.63-2.74-5.59C34.3,81.41,18,76.39,1.72,71.41,1.14,71.23.57,71,0,70.78Z"/></g></g></svg>