<svg xmlns="http://www.w3.org/2000/svg" viewBox="0 0 285.5 234.33"><defs><style>.cls-1{fill:#317efa;}</style></defs><title>underweight</title><g id="Layer_2" data-name="Layer 2"><g id="Layer_1-2" data-name="Layer 1"><path class="cls-1" d="M.42,69.55c10,2.2,20.07,4.27,30,6.66,8.26,2,16.4,4.44,24.63,6.49a13,13,0,0,0,6.37.33c21.92-6.37,44.56-7.52,67.08-9.65,30.17-2.85,56.45-13.76,76.19-37.77,5.78-7,12.06-13.44,15.8-22.21,4.65-10.9,23-16.58,33.55-11.55a11.42,11.42,0,0,1,3.73,3.24c3.78,4.69,8.58,5.74,14.32,4.91,4.21-.61,8.53-.54,13.36-.81.08,9-1.23,17-7.22,23.16-1.8,1.85-5.91,2.76-8.6,2.24-13.75-2.69-24.09,3-32.75,12.71-10,11.14-13.79,24.89-15.11,39.42-1.17,12.81-4.26,24.5-12.76,35-9,11-11.36,25.15-13,38.87-1.73,14.52-2.13,29.19-3,43.8a29.77,29.77,0,0,0,.51,6.45c1,6.36,3.47,8.26,10,8.74,1.73.13,4.68,1.52,4.77,2.53.28,3.17-2.22,3.94-5.09,3.75-3.5-.24-6.52.14-9.67,2.63-4.67,3.69-14.08-.32-15.85-6.6-1.64-5.86-1.85-12.09-6.45-16.89-.9-.94-.57-3.19-.6-4.83-.37-18.32-.6-36.64-1.17-54.95-.07-2-1.66-5.15-3.21-5.64-15.06-4.73-30.14-9.56-45.49-13.15-6.89-1.61-14.43-.62-21.67-.48-3.87.07-6.42,2.38-7.56,6.18-.48,1.59-1.22,3.1-1.83,4.65-4.09,10.41-9.7,19.1-19.8,25.38-8.29,5.16-15.53,12.52-21.94,20-6.75,7.91-7,17.73-3.22,27.4.52,1.35,2.25,2.19,3.2,3.43s2.07,2.58,1.88,3.67-1.81,2.26-3.05,2.7c-4.58,1.64-9.41-1.13-10.25-6.56-.79-5-.51-10.26-.47-15.4,0-3.45.44-6.91-.46-11.16-1.67,1.6-3.44,3.09-5,4.8-5.52,6.12-8.93,13.08-9.08,21.57-.11,6.15,1.46,11.44,5.68,16,1,1.07,1.21,2.83,1.79,4.27-1.5.51-3,1.41-4.51,1.45-5.61.17-9.73-3.87-9.78-10.92-.07-9.63.91-19.25,1.26-28.89.23-6.6,3.3-11.17,8.2-15.64C39.51,165,46.5,147.62,43.28,126.78,41.52,115.45,44,105,49.11,94.91c3.49-6.81,3-7.79-4.34-10q-21-6.33-42.08-12.62c-.92-.27-1.8-.65-2.69-1Z"/></g></g></svg>