<svg xmlns="http://www.w3.org/2000/svg" viewBox="0 0 235.22 166.02"><defs><style>.cls-1{fill:#c04f4e;}.cls-2{fill:#f1cac1;}.cls-3{fill:#fff;}.cls-4{fill:#f48c87;}</style></defs><title>beef</title><g id="Layer_2" data-name="Layer 2"><g id="Layer_1-2" data-name="Layer 1"><path class="cls-1" d="M234.17,82.89c1.25,20.08.67,38.35-15.91,52.2-24.37,20.36-62.35,28.35-93.17,30.48-30.24,2.09-61.62-3.15-89.28-15.61C16.25,141.16,5.26,119.39,2.49,99,.88,87.23-2.32,72.92,2.73,61.48,6.18,53.68,14.16,39,23,37.29Z"/><path class="cls-2" d="M36.66,17.51c-35.12,20-48.14,57.65-23.22,92.38,25.49,35.52,89,38.18,128,31.4,29.35-5.11,83.7-11.79,92.48-47,10.53-42.28-43.26-75-76-85.81C118.46-4.56,73.24-3.31,36.66,17.51Z"/><path class="cls-3" d="M93.09,34.05c-11-24-68.14,5.19-30.59,18C72.66,55.51,101.89,53.26,93.09,34.05Z"/><path class="cls-1" d="M87.38,34.76C81.89,31.17,60,31.68,57.05,39.49c-2.53,6.78,9.11,7.64,13.77,7.16C75.67,46.15,100.06,43.05,87.38,34.76Z"/><path class="cls-4" d="M64.71,74.45c2,13.92-9.11,32.94-21.64,37.48C18.29,120.9,0,82.66,7.84,63c5.34-13.43,19.05-22.63,31.49-28.58-1.66,17.88,18.85,21.22,24.38,36A19.14,19.14,0,0,1,64.71,74.45Z"/><path class="cls-4" d="M103.77,42.38c12.07,10.07,11.34,21.2-3.76,25.39-5.66,1.57-34.66,1.63-26.24-7.52C74.66,59.28,107.61,45.58,103.77,42.38Z"/><path class="cls-4" d="M197.9,110.3c-29.75,6.32-64.37-6.06-92.49-15.3-10.72-3.52-18.79-8.87-27-16.52,9.52-1.08,17.78,1.33,27.55-2,11.56-4,9.59-9.7,12.37-19.23s16.52-7.57,25.34-7.7c13.58-.2,32.74-4.51,45.69.1,12.5,4.45,27,13.09,29.87,27.06C222.32,91.9,213.45,107,197.9,110.3Z"/><path class="cls-4" d="M132.44,110.08c-15.28-5.53-33.06-10.41-46.88-19-5.29-3.29-8.82-7.89-13.76-2.39-4.62,5.13-5.45,13.86-10.92,19.45-6.1,6.22-16.05,12.93-3.1,18.08,11,4.39,27.64,3.57,39.34,3.68,12.62.12,25.25-1.33,37.78-2.63a144.28,144.28,0,0,0,28-5.73C156.06,114.47,141.63,113.4,132.44,110.08Z"/><path class="cls-4" d="M153.5,40.13c-13.66-.85-25.43,2.44-38.64-2.85-7-2.79-21-10.08-15.22-19.66,6.21-10.27,27.07-1.23,35.19.75,11.92,2.91,29.8,3.46,39.51,11.78C188.56,42.34,160.1,40.54,153.5,40.13Z"/><path class="cls-4" d="M81.2,14.47c-5.57-7.83-21.63-.75-27,3.87C38.85,31.56,64.8,22.75,70.28,22,75.22,21.34,86.56,22,81.2,14.47Z"/><path class="cls-4" d="M88.8,12.43a8,8,0,0,0,1.72,3.83c13.79-.65,3.2-14.16-1.75-4.9,1.15.54.94,1.44,1.26,1.93Z"/><path class="cls-4" d="M201.57,48.36c-4.8.76-16.78-4-16.29-10,0-.59,3.84-7.9,3.31-8.16C191.68,31.7,201,45.37,201.57,48.36Z"/></g></g></svg>