<svg xmlns="http://www.w3.org/2000/svg" viewBox="0 0 196.48 144.69"><defs><style>.cls-1{fill:#fff;}.cls-2{fill:#fdd9bf;}.cls-3{fill:#d7b8a2;}.cls-4{fill:#dddddc;}.cls-5{fill:#aaa;}.cls-6{fill:#fcc27e;}.cls-7{fill:#fde9db;}</style></defs><title>chicken</title><g id="Layer_2" data-name="Layer 2"><g id="Layer_1-2" data-name="Layer 1"><path class="cls-1" d="M.27,29.05a4.81,4.81,0,0,0,3.6,6.27,36.55,36.55,0,0,0,4.55.36,2.41,2.41,0,0,1,1.95,1,96.74,96.74,0,0,0,8,8.93,3.83,3.83,0,0,0,1.57,1.22c-.06,2.33-.25,4.67,1,6.81a12.56,12.56,0,0,0,.69,1.31c3.24,4.49,5.1,9.77,8.24,14.32a56.94,56.94,0,0,0,6,7.62c1.77,1.59,1.44,3.28.56,5.26a33.33,33.33,0,0,0-2.14,7.64c-.38,2-2,3-3.38,4.24a47,47,0,0,0-6.7,6.82,48.36,48.36,0,0,0-3.48,5.6c-1,1.88-.8,4.16-.23,6.2,1.72,6.08,6.09,9.86,11.45,12.71a58.43,58.43,0,0,0,9.64,3.82,2.11,2.11,0,0,0,1.44.2l.41.09a.63.63,0,0,0,.74.27l.45.07c.6.66,1.49.59,2.24.75,2,.42,4,1.06,6.11.84,1.69-.18,3.26.61,4.77,1.28a58.71,58.71,0,0,0,9.42,3.59c3.34.85,6.78,1.33,10.18,1.93,4.25.74,8.5,1.46,12.76,2.13a79.31,79.31,0,0,0,14.59,1.29c8.75-.26,17.35-1.85,26-3.28a76.5,76.5,0,0,0,17.79-5.61c2.75-1.19,5.35-2.74,8-4.15,3.68-2,7.68-3,11.63-4.23,6.26-1.89,12-4.66,16.41-9.64,4.26-4.83,7.89-10.1,9.83-16.3.93-3,1-6.16,1.61-9.24.66-3.51-1.05-6.72-3.27-9.54s-5.23-5-8.16-7.2c-2.63-2-5.39-3.75-8.09-5.61a89.26,89.26,0,0,0-18.07-9.56c-6.78-2.66-13.5-5.49-20.43-7.73A96,96,0,0,0,119,45.45,72.59,72.59,0,0,0,106.23,45a2,2,0,0,1-1.54-.71c-1.94-1.93-3.86-3.9-5.88-5.74-3-2.7-6.57-4.57-9.65-7.13a30.41,30.41,0,0,0-8.53-5.06,24.85,24.85,0,0,0-3.56-.57c-1.3-1.28-2.61-2.55-3.89-3.86a70.61,70.61,0,0,0-9.46-8.32c-.62-.44-.33-.83-.1-1.37,1.16-2.73,2.19-5.45,1.77-8.56S59.93-1.08,58.14.79a6.13,6.13,0,0,0-1.45,3c-.74,3-.71,3-3.89,2.93a12.31,12.31,0,0,0-2,.25,6.1,6.1,0,0,0-4,1.91,3.45,3.45,0,0,0-.69,3.87,7.64,7.64,0,0,0,4.18,4.14,12.52,12.52,0,0,0,5.86,1.23,1.41,1.41,0,0,1,1.32.78c2.61,3.84,6.06,6.93,9.29,10.22-1.65,6.83-1.06,13.65,0,20.47a26.65,26.65,0,0,0,.72,4c0,.74-.18.89-.93.66-2.19-.69-3.89-2.17-5.81-3.32-5-3-9.86-6.11-15.52-7.63-4.28-1.16-8.55-2.42-12.92-3.23-1.95-.37-3.82.34-5.74.48a12.48,12.48,0,0,0-3.5-3.26c-2.62-2-5-4.37-8-5.92-1.12-.58-.64-1.32-.24-2A7.58,7.58,0,0,0,16,23.67c-.77-3.47-3.15-4.86-6.51-3.67-1.82.64-2.56,2.32-2.92,3.94a2.29,2.29,0,0,1-2.2,2A3.16,3.16,0,0,0,2,27.38,2.27,2.27,0,0,0,.27,29.05Z"/><path class="cls-2" d="M44.54,129.79c.6.66,1.49.59,2.24.75,2,.42,4,1.06,6.11.84,1.69-.18,3.26.61,4.77,1.28a58.71,58.71,0,0,0,9.42,3.59c3.34.85,6.78,1.33,10.18,1.93,4.25.74,8.5,1.46,12.76,2.13a79.31,79.31,0,0,0,14.59,1.29c8.75-.26,17.35-1.85,26-3.28a76.5,76.5,0,0,0,17.79-5.61c2.75-1.19,5.35-2.74,8-4.15,3.68-2,7.68-3,11.63-4.23,6.26-1.89,12-4.66,16.41-9.64,4.26-4.83,7.89-10.1,9.83-16.3.93-3,1-6.16,1.61-9.24.66-3.51-1.05-6.72-3.27-9.54s-5.23-5-8.16-7.2c-2.63-2-5.39-3.75-8.09-5.61a89.26,89.26,0,0,0-18.07-9.56c-6.78-2.66-13.5-5.49-20.43-7.73A96,96,0,0,0,119,45.45,72.59,72.59,0,0,0,106.23,45a2,2,0,0,1-1.54-.71c-1.94-1.93-3.86-3.9-5.88-5.74-3-2.7-6.57-4.57-9.65-7.13a30.41,30.41,0,0,0-8.53-5.06,24.85,24.85,0,0,0-3.56-.57c-1.32-.06-2.2-1.07-3.33-1.55-1-.42-1.94-.91-3-.19a7.38,7.38,0,0,0,0,2.15c.57,3.76,2.34,7,4.12,10.32A27.93,27.93,0,0,0,86.06,47.9c1.25.69,2.45,1.49,3.76,2.29-.93.46-1.71.14-2.46.26-4.8.76-9.63,1.42-14.41,2.3-1.83.34-3.55,1.25-5.48.79,0,.74-.18.89-.93.66-2.19-.69-3.89-2.17-5.81-3.32-5-3-9.86-6.11-15.52-7.63-4.28-1.16-8.55-2.42-12.92-3.23-1.95-.37-3.82.34-5.74.48l-3.9,3.1-.95.94c.32.84.62,1.68.94,2.52,1,2.61,2.81,4.81,4.05,7.3a48.23,48.23,0,0,0,10,13.78c2.19,2.06,4.14,4.37,6.89,5.74a10.85,10.85,0,0,1,2.36,1.56A27.89,27.89,0,0,0,52,79.63a51.59,51.59,0,0,0,8.26,2.91c4.76,1.5,9.22,3.86,14.09,5,2.9.71,5.8,1.71,8.88,1,4.26-1,6.63-3.21,6-7.72-.08-.64,0-.94.74-.74a98.33,98.33,0,0,0,9.92,2,2.67,2.67,0,0,1,1,.42,59.41,59.41,0,0,0,7.31,4.28c8,3.47,16,7,24.06,10.25A52,52,0,0,0,147,100.8a84.55,84.55,0,0,0,15.68-.5c6.11-.57,12.26-1.13,18.33-2.16,1.76-.29,3.51-.48,5.29-.65,2.69-.26,3,1.3,2.61,3.37a23.09,23.09,0,0,1-7.61,12.74c-1.77,1.58-3.63,3.07-5.51,4.53a15.61,15.61,0,0,1-3.53,2.46,41.83,41.83,0,0,1-10.78,2.78,8.44,8.44,0,0,0-3,.87c-5.53,2.89-11.3,5.27-17,7.87-8,3.68-16.62,5.12-25.35,5.75a133.5,133.5,0,0,1-17.32-.24,112.23,112.23,0,0,1-21.32-3.77,60.1,60.1,0,0,0-9.74-2.08c-5.67-.46-11.35-.74-17-1.17C48.69,130.44,46.61,130.07,44.54,129.79Z"/><path class="cls-3" d="M44.54,129.79c2.07.28,4.15.65,6.23.81,5.68.43,11.36.71,17,1.17a60.1,60.1,0,0,1,9.74,2.08,112.23,112.23,0,0,0,21.32,3.77,133.5,133.5,0,0,0,17.32.24c8.73-.63,17.33-2.07,25.35-5.75,5.66-2.6,11.43-5,17-7.87a8.44,8.44,0,0,1,3-.87,41.83,41.83,0,0,0,10.78-2.78,15.61,15.61,0,0,0,3.53-2.46c1.88-1.46,3.74-2.95,5.51-4.53a23.09,23.09,0,0,0,7.61-12.74c.43-2.07.08-3.63-2.61-3.37-1.78.17-3.53.36-5.29.65-6.07,1-12.22,1.59-18.33,2.16a84.55,84.55,0,0,1-15.68.5,52,52,0,0,1-14.72-3.74c-8.08-3.27-16.06-6.78-24.06-10.25a59.41,59.41,0,0,1-7.31-4.28,2.67,2.67,0,0,0-1-.42,98.33,98.33,0,0,1-9.92-2c-.77-.2-.82.1-.74.74.62,4.51-1.75,6.74-6,7.72-3.08.71-6-.29-8.88-1C69.48,86.4,65,84,60.26,82.54A51.59,51.59,0,0,1,52,79.63a27.89,27.89,0,0,1-6.08-4.19,10.85,10.85,0,0,0-2.36-1.56c-2.75-1.37-4.7-3.68-6.89-5.74a48.23,48.23,0,0,1-10-13.78c-1.24-2.49-3-4.69-4.05-7.3-.32-.84-.62-1.68-.94-2.52-1.14.33-1,1.68-1.76,2.27-.06,2.33-.25,4.67,1,6.81a12.56,12.56,0,0,0,.69,1.31c3.24,4.49,5.1,9.77,8.24,14.32a56.94,56.94,0,0,0,6,7.62,1.8,1.8,0,0,1,1.59.87c2.41,3.25,5.47,6,6.65,10.15s-.25,7.84-1.24,11.66c0,.17-.21.3-.31.45-1.76,2.76-4.73,4.21-7,6.43-1.51,1.48-3.68,1.82-5.61,2.51s-3.54,1.7-4,3.91a6.31,6.31,0,0,0,1.76,6.42c3.37,3.09,7.33,5.34,11.15,7.78,1.35.85,3,1.25,4.18,2.31l.42.09c.35-.22.6-.14.73.27Z"/><path class="cls-2" d="M42.94,129.36c-1.23-1.06-2.83-1.46-4.18-2.31-3.82-2.44-7.78-4.69-11.15-7.78a6.31,6.31,0,0,1-1.76-6.42c.46-2.21,2-3.2,4-3.91s4.1-1,5.61-2.51c2.28-2.22,5.25-3.67,7-6.43.1-.15.27-.28.31-.45,1-3.82,2.43-7.5,1.24-11.66S39.78,81,37.37,77.74a1.8,1.8,0,0,0-1.59-.87c1.77,1.59,1.44,3.28.56,5.26a33.33,33.33,0,0,0-2.14,7.64c-.38,2-2,3-3.38,4.24a47,47,0,0,0-6.7,6.82,48.36,48.36,0,0,0-3.48,5.6c-1,1.88-.8,4.16-.23,6.2,1.72,6.08,6.09,9.86,11.45,12.71a58.43,58.43,0,0,0,9.64,3.82A2.11,2.11,0,0,0,42.94,129.36Z"/><path class="cls-3" d="M67.47,53.54c1.93.46,3.65-.45,5.48-.79,4.78-.88,9.61-1.54,14.41-2.3.75-.12,1.53.2,2.46-.26-1.31-.8-2.51-1.6-3.76-2.29A27.93,27.93,0,0,1,74.91,36.48c-1.78-3.28-3.55-6.56-4.12-10.32a7.38,7.38,0,0,1,0-2.15L69,24.88a15.28,15.28,0,0,0-2.24,4.22c-1.65,6.83-1.06,13.65,0,20.47A26.65,26.65,0,0,0,67.47,53.54Z"/><path class="cls-4" d="M69,24.88,70.75,24c1-.72,2-.23,3,.19,1.13.48,2,1.49,3.33,1.55-1.3-1.28-2.61-2.55-3.89-3.86a70.61,70.61,0,0,0-9.46-8.32c-.62-.44-.33-.83-.1-1.37,1.16-2.73,2.19-5.45,1.77-8.56S59.93-1.08,58.14.79a6.13,6.13,0,0,0-1.45,3c-.74,3-.71,3-3.89,2.93a12.31,12.31,0,0,0-2,.25,5,5,0,0,0,1.39,3.41,11.22,11.22,0,0,0,4.25,2.53,4.63,4.63,0,0,1,2.13,1.35c2.09,2.15,4.22,4.27,6.31,6.41C66.26,22.05,67.61,23.47,69,24.88Z"/><path class="cls-4" d="M22.65,43.6l3.9-3.1a12.48,12.48,0,0,0-3.5-3.26c-2.62-2-5-4.37-8-5.92-1.12-.58-.64-1.32-.24-2A7.58,7.58,0,0,0,16,23.67c-.77-3.47-3.15-4.86-6.51-3.67-1.82.64-2.56,2.32-2.92,3.94a2.29,2.29,0,0,1-2.2,2A3.16,3.16,0,0,0,2,27.38c.7,2.5,2.85,3.07,5,3.56a4.13,4.13,0,0,1,1.69.72c3.19,2.48,6.41,4.92,9.55,7.48A19.1,19.1,0,0,1,22.65,43.6Z"/><path class="cls-5" d="M69,24.88c-1.36-1.41-2.71-2.83-4.08-4.23-2.09-2.14-4.22-4.26-6.31-6.41a4.63,4.63,0,0,0-2.13-1.35,11.22,11.22,0,0,1-4.25-2.53A5,5,0,0,1,50.81,7a6.1,6.1,0,0,0-4,1.91,3.45,3.45,0,0,0-.69,3.87,7.64,7.64,0,0,0,4.18,4.14,12.52,12.52,0,0,0,5.86,1.23,1.41,1.41,0,0,1,1.32.78c2.61,3.84,6.06,6.93,9.29,10.22A15.28,15.28,0,0,1,69,24.88Z"/><path class="cls-5" d="M22.65,43.6a19.1,19.1,0,0,0-4.42-4.46c-3.14-2.56-6.36-5-9.55-7.48A4.13,4.13,0,0,0,7,30.94c-2.1-.49-4.25-1.06-4.95-3.56A2.27,2.27,0,0,0,.27,29.05a4.81,4.81,0,0,0,3.6,6.27,36.55,36.55,0,0,0,4.55.36,2.41,2.41,0,0,1,1.95,1,96.74,96.74,0,0,0,8,8.93,3.83,3.83,0,0,0,1.57,1.22c.8-.59.62-1.94,1.76-2.27Z"/><path class="cls-6" d="M44.09,129.72c-.13-.41-.38-.49-.73-.27A.61.61,0,0,0,44.09,129.72Z"/><path class="cls-7" d="M134,56.86c-1.66,6.53-17.85,1.42-12.56-4.21C123.85,50.06,135.18,52.17,134,56.86Z"/><path class="cls-7" d="M113.25,50.05c1.68-.17,3.17,1.08,4,2.46a2.55,2.55,0,0,1-1.19,3.58,3.91,3.91,0,0,1-3.16,0c-1.33-.58-2.3-2.87-2.17-4.34.07-.88.65-2.65,1.5-2.79l.52-.08c6.78-1.06,7.84,5.72,1.07,6.78l-.52.08c.1-3.49,1-1.54,1.61-2.12,0,.38-.09-.71,0-.35,0-.12-.09-.33-.12-.45.08.19,0,.07-.17-.26.09.13.33.3-.15-.13.13.12.5.26-.09,0a2.5,2.5,0,0,0,.25.09c.34.11-.51-.11-.16-.05l.26,0c.34,0-.59,0-.12,0,.18,0,.43-.16-.22.07.17-.06.32-.24-.21.15a1.13,1.13,0,0,0-.43.58,1.43,1.43,0,0,0-.09.79c.13.4.16.5.08.3s.31.43.06.11.18.12-.13-.13c-.14-.13-.3-.24-.44-.37-.52-.46.33.1.68.06a2,2,0,0,1-.62-3.93Z"/><path class="cls-7" d="M141.19,57.63a3.53,3.53,0,0,1-.8,1.87,2,2,0,0,1-3.22-2.35c.31-.43.06-.08.06,0a2,2,0,0,1,2.2-1.75,2,2,0,0,1,1.76,2.2Z"/><path class="cls-7" d="M34.45,50.86l.37.51a2,2,0,0,1-.29,2.8,2,2,0,0,1-2.8-.28l-.36-.52a2,2,0,0,1,.28-2.8,2,2,0,0,1,2.8.29Z"/><path class="cls-7" d="M34.48,57l1.31-.21a2,2,0,0,1,.62,3.94l-1.32.2c-1.31.21-1.92-3.73-.61-3.93Z"/><path class="cls-7" d="M39,53.91h0A2,2,0,0,1,43,53.3h0a2,2,0,0,1-3.94.61Z"/><path class="cls-7" d="M40.31,59.38s.29,1.83.22,1.37a1.91,1.91,0,0,1,1.53-2.26,2.43,2.43,0,0,1,1.53,0A4.8,4.8,0,0,1,45.1,59.7a5,5,0,0,1,1,3.57,2,2,0,0,1-3.53,1,3.09,3.09,0,0,1-.06-4.14A2,2,0,0,1,45.7,62.5c-.05.07-.36.58-.12.12a1.37,1.37,0,0,0,0-.89c-.11-.19-.09-.17.09.06l-3.53,1c0-.25,0-.29,0-.11,0,0-.16-.65,0-.27,0-.07-.32-.52-.1-.22-.22-.3-.3-1.71-.17-1.64.35,0,.45-1.5.78-1.55l-.56.08c.66-.1,2.7,1.65,2.59,1,.08.46-.21-1.37-.21-1.37.64,4.1-3.45,4.74-4.1.64Z"/><path class="cls-3" d="M194.65,83.83C189,89,185.16,95.26,179.89,100.57c-12,12.07-36.84,11.47-52.4,13.73-18.55,2.7-37,4.88-55.71,6.29-9.23.69-18.3,1.06-27.25-1.81-7-2.23-12.88-7.29-19.77-9.35-11.51-3.43-3.38,8-.07,11.4,6.72,7,12.88,10.53,22.4,13.09a314.11,314.11,0,0,0,49.67,9.5c15.94,1.61,32.59,2.62,47.91-2.94,12.55-4.55,24.18-12.47,35.18-19.92,14.58-9.89,19.85-20,14.71-37.3Z"/></g></g></svg>