<svg xmlns="http://www.w3.org/2000/svg" viewBox="0 0 172.2 136.67"><defs><style>.cls-1{fill:#8c4748;}.cls-2{fill:#a15246;}.cls-3{fill:#913e34;}.cls-4{fill:#fbcaaf;}.cls-5{fill:#e8a69a;}.cls-6{fill:#d08579;}</style></defs><title>fish</title><g id="Layer_2" data-name="Layer 2"><g id="Layer_1-2" data-name="Layer 1"><path class="cls-1" d="M126,123.39l.24-.13.64-.34-.27-.32C126.43,122.87,126.22,123.13,126,123.39Z"/><path class="cls-2" d="M159.32,29.87c-1.1-2-2.22-4.06-3.4-6.1.06.92.06,1.86.07,2.79C157.13,27.63,158.24,28.74,159.32,29.87Z"/><path class="cls-2" d="M44.75,9.57h0Z"/><path class="cls-2" d="M70.56,46c-1.86-.61-3.72-1.22-5.6-1.81C65,46.89,68.85,48,70.56,46Z"/><path class="cls-3" d="M172.09,62.31c-.78-10-5.37-18.92-10.42-28.15-.59-1.08-1.18-2.16-1.78-3.24l-.57-1.05c-1.08-1.13-2.19-2.24-3.33-3.31,0-.93,0-1.87-.07-2.79C151,15.27,145.16,7,136.08,2.94l-.22-.1a31.6,31.6,0,0,0-6.6-2c-7.06-1.36-14.79-.82-22-.42L104.17.6l-2.63.09c-1.2,0-2.4.08-3.6.13-5.1.19-10.23.56-15.35,1.11q-3.21.33-6.42.77c-2.1.29-4.19.6-6.28.95A192.84,192.84,0,0,0,44.75,9.57h0c-2,.62-4,1.27-6,2-3.11,1.08-6.17,2.27-9.2,3.53-3.75,1.57-7.45,3.26-11,5.12L94.72,132.84c3.74,2.6,8.89,1.79,14.13-.26,6.43-2.52,13-6.91,17.17-9.19.2-.26.41-.52.61-.79l.27.32q2.86-1.55,5.6-3.08A115.71,115.71,0,0,0,152,106.63a66.32,66.32,0,0,0,5-4.89,55.92,55.92,0,0,0,10.39-16,64.21,64.21,0,0,0,2.38-6.49c.57-1.86,1.1-3.77,1.55-5.8A37.75,37.75,0,0,0,172.09,62.31ZM65,44.16c1.88.59,3.74,1.2,5.6,1.81C68.85,48,65,46.89,65,44.16Z"/><path class="cls-2" d="M161.67,34.16c-.59-1.08-1.18-2.16-1.78-3.24l-.57-1.05c-1.08-1.13-2.19-2.24-3.33-3.31A99.25,99.25,0,0,0,137.14,12.8a81.13,81.13,0,0,0-1.06-9.86l-.22-.1a31.6,31.6,0,0,0-6.6-2,72.23,72.23,0,0,1,1.33,8.45A139.12,139.12,0,0,0,107.24.45L104.17.6l-2.63.09c-1.2,0-2.4.08-3.6.13-5.1.19-10.23.56-15.35,1.11A141.52,141.52,0,0,1,98.42,4.61a103.66,103.66,0,0,1,.81,22.19c-6.62-3-13.36-5.79-20.2-8.41l-1.79-.68a48.82,48.82,0,0,0-1.07-15c-2.1.29-4.19.6-6.28.95a42.45,42.45,0,0,1,1.16,11.77c-8.24-2.94-17.51-5.64-26.3-5.85h0c-2,.62-4,1.27-6,2-3.11,1.08-6.17,2.27-9.2,3.53.18,1.8,1.63,3.38,3.78,2.56a25.29,25.29,0,0,1,4.43-1.22A67.76,67.76,0,0,1,32.53,27c-2,3.54,3.44,6.71,5.44,3.18s5-9,6.28-14.29C53.07,16,62.41,19.12,70.44,22c-1,7.11-3.23,14.18-5.34,21.19a3.36,3.36,0,0,0-.14,1c1.88.59,3.74,1.2,5.6,1.81a3.18,3.18,0,0,0,.61-1.14,169.53,169.53,0,0,0,5.29-20.71q11.22,4.11,22,9.19c-1.25,7.13-4,13.93-6.58,20.76-6.93-3-14-5.68-21.29-8.1C68.85,48,65,46.89,65,44.16c-5.11-1.6-10.31-3.12-15.58-4.61-3.92-1.1-5.58,5-1.68,6.08C62.31,49.73,76.31,54.09,89.76,60c-.3.91-.61,1.83-.88,2.75-1.14,3.91,4.93,5.56,6.07,1.67.18-.59.38-1.19.56-1.78a163.71,163.71,0,0,1,18.85,10.55c.77.5,1.51,1,2.26,1.55-2.22,4.93-6.38,8.77-8.53,13.84-1.56,3.7,3.86,6.91,5.44,3.18,2.06-4.88,5.48-8.87,8.08-13.4a193.52,193.52,0,0,1,15.21,13.16,133.42,133.42,0,0,1-11,21.49,66.14,66.14,0,0,0-43-17.59c-4.06-.11-4,6.19,0,6.3,15.33.41,28.85,6.67,39.45,16.46a80.21,80.21,0,0,1-13.42,14.41c6.43-2.52,13-6.91,17.17-9.19.2-.26.41-.52.61-.79l.27.32q2.86-1.55,5.6-3.08c-.73-.85-1.47-1.68-2.23-2.49A141.19,141.19,0,0,0,141.5,96l3,2.89c2.4,2.36,5,4.95,7.5,7.73a66.32,66.32,0,0,0,5-4.89A125.9,125.9,0,0,0,144.42,88.9q1.19-3,2.31-6.09c1.71-4.69,3.32-9.45,4.9-14.22,1.24,1.17,2.48,2.35,3.69,3.56a128.87,128.87,0,0,1,12.06,13.63,64.21,64.21,0,0,0,2.38-6.49c-1.14-1.45-2.29-2.9-3.44-4.33a113.48,113.48,0,0,0-12.47-13.11c1.49-4.58,3-9.16,4.46-13.71q1.19-3.62,2.07-7.29A61.22,61.22,0,0,1,170,60.22a2.9,2.9,0,0,0,2.05,2.09C171.31,52.34,166.72,43.39,161.67,34.16ZM105,6.26a130.37,130.37,0,0,1,26,10.2,112.12,112.12,0,0,1-3.38,25.66l-.63-.42a207.11,207.11,0,0,0-21.55-12C106.43,22,105.94,14,105,6.26ZM97.48,56.65c2.37-6.82,5-13.53,6.66-20.55,4.63,2.34,9.21,4.8,13.71,7.43,2.74,1.6,5.43,3.28,8.09,5l-.75,2.8a155.18,155.18,0,0,1-6.14,17.6A162.25,162.25,0,0,0,97.48,56.65ZM141.8,77.79c-.72,2.26-1.51,4.54-2.33,6.82-4.66-3.91-9.21-7.41-13.08-10.39-.7-.54-1.42-1-2.13-1.58a199,199,0,0,0,7.16-20.41,185.44,185.44,0,0,1,15.3,11.91C144.94,68.85,143.2,73.43,141.8,77.79Zm7.29-20.07c-5.1-4.24-10.46-8.17-15.92-11.87a122.86,122.86,0,0,0,4-25.81,87,87,0,0,1,18.22,14.8C154.29,42.48,151.82,50.21,149.09,57.72Z"/><path class="cls-4" d="M13.41,23.08c17-14.86,44.24,7.43,59.05,16.44C92.35,51.61,118.53,66.58,118.64,93c.08,18.23-8.55,45.57-30.53,43.6-22.4-2-45.06-6.72-63-21.23C10.51,103.5,5.12,84.68,1.32,67.06-2.07,51.3.76,34.12,13.41,23.08Z"/><path class="cls-5" d="M63.2,41.29C48.73,30,30.18,14.77,14.87,34.77c-13.56,17.7-7.7,52.53,4,69.74,6.72,9.88,17.16,14.17,28.23,17.43,10.84,3.19,21.87,7,32.95,9.2,26.11,5.28,33.17-19.19,31.16-40.64C108.79,64.58,81,55.15,63.2,41.29Z"/><path class="cls-6" d="M73.91,62.83c-2.28-2.58-4.57-5.08-6.93-7.48s-4.79-4.69-7.29-6.84q-2.44-2.17-5-4.13A57.34,57.34,0,0,0,43.9,37.83a19.11,19.11,0,0,0-7.95-2,18.53,18.53,0,0,0-8.85,2.28C18.87,43,15.94,51,15.79,59.44A48,48,0,0,0,16.47,68,54,54,0,0,0,41.9,109.47,64,64,0,0,0,48,112.91c16.74,3.56,30.84,15.81,44.94,6,14.1-14.69,2.35-39.18-12.14-48.74C78.62,67.79,76.34,65.33,73.91,62.83Z"/><path class="cls-3" d="M46.34,73.91c-.57,6.79,6.86,19.31,14.75,13.25C68.4,81.54,58.17,73,53.21,70.64,49.91,69.08,46.7,69.62,46.34,73.91Z"/></g></g></svg>