<svg xmlns="http://www.w3.org/2000/svg" viewBox="0 0 201.08 114.43"><defs><style>.cls-1{fill:#f49294;}.cls-2{fill:#f17171;}.cls-3{fill:#fff;}</style></defs><title>lamb</title><g id="Layer_2" data-name="Layer 2"><g id="Layer_1-2" data-name="Layer 1"><path class="cls-1" d="M199,69.37c-.88,13.17.89,26.32-13.33,32-24.09,9.64-55.81,13.36-81.5,13-21.14-.27-42.64-4.75-63.2-9.58C28.83,102,12.44,97.61,5.45,86.24-1.85,74.36.12,58.1,5.28,45.93Z"/><path class="cls-2" d="M198,76.61c11.74-20-12.56-34.54-27.16-37.07C162,38,153.54,37.08,145,34.22c-16.62-5.53-31.93-15.08-46.15-26C87.42-.52,76.92-3.2,64.37,4.68,54,11.18,47,23,36.52,29c-9.11,5.24-20.18,3.35-29,9.69-14,10-6.09,25.91,5.28,33.87C32.24,86.17,57.57,87,79.8,88.16,101,89.3,122,92.54,143.22,94.06,160.59,95.3,187.08,95.19,198,76.61Z"/><path class="cls-3" d="M64.63,59.26c1.4-7.34-21.18-14.17-26.28-13.8-6.68.48-13.87,4.09-10.75,11.87,3.45,8.64,18.7,8.2,26,7C56.36,63.9,63.91,63,64.63,59.26Z"/><path class="cls-1" d="M85.33,44.07c-7.84-1.4-29.76,2.55-25.59-11.72,3-10.26,17.07-16.5,26.72-13.33C101.19,23.86,106.29,47.81,85.33,44.07Z"/><path class="cls-1" d="M88.34,81c-9.12.06-20-5.33-17.44-16.25,2.23-9.62,10.89-9.69,18.67-10.61,8.33-1,15.14-5.82,20.86-11.68,10.71-11,18.06-1.79,29,5.28,10.35,6.67,18.26,15.55,4.73,25.26C130.24,83,104.83,80.91,88.34,81Z"/><path class="cls-1" d="M151.47,81.78c3.13-5.48,9.08-7.65,12.39-12.82s1.13-7.82,1.29-13.27c11.44-2,21.4,2.57,21.48,15.4.05,8.13-5.76,12.28-13.24,13.46-4.91.77-17.22,1.41-21.92-2.08Z"/><path class="cls-1" d="M36.92,55.22c-2.94,4,12.66,7.75,17.49,5,9-5.17-10.85-8.37-14.65-6.82A6.63,6.63,0,0,0,36.92,55.22Z"/><path class="cls-3" d="M89.37,55.58c9.73-.28,16.12-5.76,24.8-9.16,4.36-1.71,8.61-2.79,13.24-1.55,4.3,1.15,7.5,5.8,11.58,6.72,9.16,2.06,2.89-7.66-1.51-10.89C131.4,36.23,122,34.46,115,37.09c-9.08,3.39-17.08,12.18-24.94,17.8Z"/><path class="cls-3" d="M80.41,44.11C73.06,39.42,56,32.26,67.25,21.36,59.72,23,52.41,31.41,55.61,39.57c4.18,10.65,23.83,7.67,31.7,4.54Z"/><path class="cls-3" d="M164.51,69.37c.11,4.72-19.13,7.29-21.44,14.47,7.53,8.4,24.56.22,33.64,1.42-6.07-2-13.23-.14-19-2.91-2.35-4.51.72-8.1,4.71-10.22Z"/></g></g></svg>